<svg width="31" height="32" viewBox="0 0 31 32" fill="none" xmlns="http://www.w3.org/2000/svg">
<path opacity="0.2" d="M19.914 4.375H11.086C10.9588 4.375 10.8328 4.40006 10.7153 4.44874C10.5978 4.49743 10.491 4.56878 10.401 4.65874L4.15874 10.901C4.06878 10.991 3.99743 11.0978 3.94874 11.2153C3.90006 11.3328 3.875 11.4588 3.875 11.586V20.414C3.875 20.5412 3.90006 20.6672 3.94874 20.7847C3.99743 20.9022 4.06878 21.009 4.15874 21.099L10.401 27.3413C10.491 27.4312 10.5978 27.5026 10.7153 27.5513C10.8328 27.5999 10.9588 27.625 11.086 27.625H19.914C20.0412 27.625 20.1672 27.5999 20.2847 27.5513C20.4022 27.5026 20.509 27.4312 20.599 27.3413L26.8413 21.099C26.9312 21.009 27.0026 20.9022 27.0513 20.7847C27.0999 20.6672 27.125 20.5412 27.125 20.414V11.586C27.125 11.4588 27.0999 11.3328 27.0513 11.2153C27.0026 11.0978 26.9312 10.991 26.8413 10.901L20.599 4.65874C20.509 4.56878 20.4022 4.49743 20.2847 4.44874C20.1672 4.40006 20.0412 4.375 19.914 4.375Z" fill="white"/>
<path d="M15.5 10.1875V16.9688" stroke="white" stroke-width="1.5" stroke-linecap="round" stroke-linejoin="round"/>
<path d="M19.914 4.375H11.086C10.9588 4.375 10.8328 4.40006 10.7153 4.44874C10.5978 4.49743 10.491 4.56878 10.401 4.65874L4.15874 10.901C4.06878 10.991 3.99743 11.0978 3.94874 11.2153C3.90006 11.3328 3.875 11.4588 3.875 11.586V20.414C3.875 20.5412 3.90006 20.6672 3.94874 20.7847C3.99743 20.9022 4.06878 21.009 4.15874 21.099L10.401 27.3413C10.491 27.4312 10.5978 27.5026 10.7153 27.5513C10.8328 27.5999 10.9588 27.625 11.086 27.625H19.914C20.0412 27.625 20.1672 27.5999 20.2847 27.5513C20.4022 27.5026 20.509 27.4312 20.599 27.3413L26.8413 21.099C26.9312 21.009 27.0026 20.9022 27.0513 20.7847C27.0999 20.6672 27.125 20.5412 27.125 20.414V11.586C27.125 11.4588 27.0999 11.3328 27.0513 11.2153C27.0026 11.0978 26.9312 10.991 26.8413 10.901L20.599 4.65874C20.509 4.56878 20.4022 4.49743 20.2847 4.44874C20.1672 4.40006 20.0412 4.375 19.914 4.375Z" stroke="white" stroke-width="1.5" stroke-miterlimit="10"/>
<path d="M15.5 22.7812C16.3025 22.7812 16.9531 22.1307 16.9531 21.3281C16.9531 20.5256 16.3025 19.875 15.5 19.875C14.6975 19.875 14.0469 20.5256 14.0469 21.3281C14.0469 22.1307 14.6975 22.7812 15.5 22.7812Z" fill="white"/>
</svg>
