<svg width="29" height="28" viewBox="0 0 29 28" fill="none" xmlns="http://www.w3.org/2000/svg">
<path opacity="0.2" d="M6.94482 22.0433C5.93813 21.0367 6.60583 18.9232 6.09343 17.6847C5.56226 16.401 3.61316 15.3677 3.61316 14C3.61316 12.6322 5.56227 11.599 6.09344 10.3152C6.60583 9.07684 5.93813 6.96335 6.94482 5.95666C7.95151 4.94997 10.065 5.61767 11.3034 5.10527C12.5872 4.5741 13.6204 2.625 14.9882 2.625C16.3559 2.625 17.3892 4.57411 18.6729 5.10528C19.9113 5.61768 22.0248 4.94997 23.0315 5.95666C24.0382 6.96335 23.3705 9.07685 23.8829 10.3153C24.4141 11.599 26.3632 12.6323 26.3632 14C26.3632 15.3678 24.414 16.401 23.8829 17.6848C23.3705 18.9232 24.0382 21.0367 23.0315 22.0433C22.0248 23.05 19.9113 22.3823 18.6729 22.8947C17.3891 23.4259 16.3559 25.375 14.9881 25.375C13.6204 25.375 12.5872 23.4259 11.3034 22.8947C10.065 22.3823 7.95151 23.05 6.94482 22.0433Z" fill="white"/>
<path d="M6.94482 22.0433C5.93813 21.0367 6.60583 18.9232 6.09343 17.6847C5.56226 16.401 3.61316 15.3677 3.61316 14C3.61316 12.6322 5.56227 11.599 6.09344 10.3152C6.60583 9.07684 5.93813 6.96335 6.94482 5.95666C7.95151 4.94997 10.065 5.61767 11.3034 5.10527C12.5872 4.5741 13.6204 2.625 14.9882 2.625C16.3559 2.625 17.3892 4.57411 18.6729 5.10528C19.9113 5.61768 22.0248 4.94997 23.0315 5.95666C24.0382 6.96335 23.3705 9.07685 23.8829 10.3153C24.4141 11.599 26.3632 12.6323 26.3632 14C26.3632 15.3678 24.414 16.401 23.8829 17.6848C23.3705 18.9232 24.0382 21.0367 23.0315 22.0433C22.0248 23.05 19.9113 22.3823 18.6729 22.8947C17.3891 23.4259 16.3559 25.375 14.9881 25.375C13.6204 25.375 12.5872 23.4259 11.3034 22.8947C10.065 22.3823 7.95151 23.05 6.94482 22.0433Z" stroke="white" stroke-width="1.11271" stroke-linecap="round" stroke-linejoin="round"/>
<path d="M19.8007 11.375L13.384 17.5L10.1757 14.4375" stroke="white" stroke-width="1.11271" stroke-linecap="round" stroke-linejoin="round"/>
</svg>
